<svg width="40" height="40" viewBox="0 0 40 40" fill="none" xmlns="http://www.w3.org/2000/svg">
<path d="M19.9583 36.5556L17.2223 34.0972C14.2358 31.3728 11.7716 29.0204 9.82963 27.04C7.88765 25.0597 6.34492 23.2824 5.20142 21.7083C4.05789 20.1343 3.25928 18.6898 2.80558 17.375C2.35186 16.0602 2.125 14.7121 2.125 13.3306C2.125 10.4473 3.08822 8.03943 5.01467 6.10701C6.94108 4.17457 9.32971 3.20834 12.1805 3.20834C13.6945 3.20834 15.1077 3.5139 16.4202 4.12501C17.7326 4.73612 18.912 5.63891 19.9583 6.83339C21.1158 5.58336 22.3338 4.66668 23.6125 4.08334C24.8913 3.50001 26.2658 3.20834 27.7361 3.20834C30.6263 3.20834 33.0387 4.17482 34.9732 6.10776C36.9077 8.04073 37.875 10.4493 37.875 13.3333C37.875 14.7031 37.6505 16.041 37.2014 17.3468C36.7523 18.6526 35.9537 20.0903 34.8055 21.6597C33.6574 23.2292 32.1066 25.0121 30.1532 27.0084C28.1999 29.0047 25.7228 31.3677 22.7222 34.0972L19.9583 36.5556ZM19.9445 30.7639C22.6803 28.2455 24.9245 26.1112 26.6769 24.3612C28.4294 22.6112 29.8125 21.0834 30.8264 19.7778C31.8403 18.4722 32.5417 17.3162 32.9306 16.3096C33.3195 15.3029 33.5139 14.3125 33.5139 13.3383C33.5139 11.6683 32.9735 10.2894 31.8927 9.20139C30.8119 8.11341 29.4352 7.56943 27.7625 7.56943C26.4523 7.56943 25.2292 7.98841 24.0931 8.82639C22.9569 9.66436 22.0694 10.7917 21.4305 12.2083H18.5C17.8887 10.7917 17.0038 9.66436 15.8455 8.82639C14.6872 7.98841 13.4662 7.56943 12.1827 7.56943C10.5441 7.56943 9.19192 8.10745 8.12625 9.18351C7.06058 10.2596 6.52775 11.6458 6.52775 13.3421C6.52775 14.3541 6.72831 15.3758 7.12942 16.4072C7.53053 17.4385 8.23886 18.61 9.25442 19.9216C10.27 21.2331 11.6412 22.757 13.368 24.4931C15.0949 26.2292 17.287 28.3195 19.9445 30.7639Z" fill="#E44B46"/>
</svg>
